<?xml version="1.0" encoding="UTF-8" standalone="no"?>
<!-- Created with Inkscape (http://www.inkscape.org/) -->

<svg
   version="1.1"
   id="svg1"
   width="1001"
   height="667.66669"
   viewBox="0 0 1001 667.66669"
   sodipodi:docname="4048563.eps"
   xml:space="preserve"
   xmlns:inkscape="http://www.inkscape.org/namespaces/inkscape"
   xmlns:sodipodi="http://sodipodi.sourceforge.net/DTD/sodipodi-0.dtd"
   xmlns="http://www.w3.org/2000/svg"
   xmlns:svg="http://www.w3.org/2000/svg"><defs
     id="defs1"><clipPath
       clipPathUnits="userSpaceOnUse"
       id="clipPath4"><path
         d="M 7503.75,3.75 H 3.74609 v 5000 H 7503.75 Z"
         transform="translate(0,2.5e-5)"
         id="path4" /></clipPath><clipPath
       clipPathUnits="userSpaceOnUse"
       id="clipPath6"><path
         d="M 7503.75,3.75 H 3.74609 v 5000 H 7503.75 Z"
         transform="translate(0,2.5e-5)"
         id="path6" /></clipPath><clipPath
       clipPathUnits="userSpaceOnUse"
       id="clipPath8"><path
         d="M 7503.75,3.75 H 3.74609 v 5000 H 7503.75 Z"
         transform="translate(0,2.5e-5)"
         id="path8" /></clipPath><clipPath
       clipPathUnits="userSpaceOnUse"
       id="clipPath10"><path
         d="M 7503.75,3.75 H 3.74609 v 5000 H 7503.75 Z"
         transform="translate(0,2.5e-5)"
         id="path10" /></clipPath><clipPath
       clipPathUnits="userSpaceOnUse"
       id="clipPath12"><path
         d="M 7503.75,3.75 H 3.74609 v 5000 H 7503.75 Z"
         transform="translate(0,2.5e-5)"
         id="path12" /></clipPath><clipPath
       clipPathUnits="userSpaceOnUse"
       id="clipPath14"><path
         d="M 7503.75,3.75 H 3.74609 v 5000 H 7503.75 Z"
         transform="translate(0,2.5e-5)"
         id="path14" /></clipPath><clipPath
       clipPathUnits="userSpaceOnUse"
       id="clipPath16"><path
         d="M 7503.75,3.75 H 3.74609 v 5000 H 7503.75 Z"
         transform="translate(0,2.5e-5)"
         id="path16" /></clipPath><clipPath
       clipPathUnits="userSpaceOnUse"
       id="clipPath18"><path
         d="M 7503.75,3.75 H 3.74609 v 5000 H 7503.75 Z"
         transform="translate(0,2.5e-5)"
         id="path18" /></clipPath><clipPath
       clipPathUnits="userSpaceOnUse"
       id="clipPath20"><path
         d="M 7503.75,3.75 H 3.74609 v 5000 H 7503.75 Z"
         transform="translate(0,2.5e-5)"
         id="path20" /></clipPath><clipPath
       clipPathUnits="userSpaceOnUse"
       id="clipPath22"><path
         d="M 7503.75,3.75 H 3.74609 v 5000 H 7503.75 Z"
         transform="translate(0,2.5e-5)"
         id="path22" /></clipPath><clipPath
       clipPathUnits="userSpaceOnUse"
       id="clipPath24"><path
         d="M 7503.75,3.75 H 3.74609 v 5000 H 7503.75 Z"
         transform="translate(0,2.5e-5)"
         id="path24" /></clipPath><clipPath
       clipPathUnits="userSpaceOnUse"
       id="clipPath26"><path
         d="M 7503.75,3.75 H 3.74609 v 5000 H 7503.75 Z"
         transform="translate(0,2.5e-5)"
         id="path26" /></clipPath><clipPath
       clipPathUnits="userSpaceOnUse"
       id="clipPath28"><path
         d="M 7503.75,3.75 H 3.74609 v 5000 H 7503.75 Z"
         transform="translate(0,2.5e-5)"
         id="path28" /></clipPath><clipPath
       clipPathUnits="userSpaceOnUse"
       id="clipPath30"><path
         d="M 7503.75,3.75 H 3.74609 v 5000 H 7503.75 Z"
         transform="translate(0,2.5e-5)"
         id="path30" /></clipPath><clipPath
       clipPathUnits="userSpaceOnUse"
       id="clipPath32"><path
         d="M 7503.75,3.75 H 3.74609 v 5000 H 7503.75 Z"
         transform="translate(0,2.5e-5)"
         id="path32" /></clipPath><clipPath
       clipPathUnits="userSpaceOnUse"
       id="clipPath34"><path
         d="M 7503.75,3.75 H 3.74609 v 5000 H 7503.75 Z"
         transform="translate(0,2.5e-5)"
         id="path34" /></clipPath><clipPath
       clipPathUnits="userSpaceOnUse"
       id="clipPath36"><path
         d="M 7503.75,3.75 H 3.74609 v 5000 H 7503.75 Z"
         transform="translate(0,2.5e-5)"
         id="path36" /></clipPath><clipPath
       clipPathUnits="userSpaceOnUse"
       id="clipPath38"><path
         d="M 7503.75,3.75 H 3.74609 v 5000 H 7503.75 Z"
         transform="translate(0,2.5e-5)"
         id="path38" /></clipPath><clipPath
       clipPathUnits="userSpaceOnUse"
       id="clipPath40"><path
         d="M 7503.75,3.75 H 3.74609 v 5000 H 7503.75 Z"
         transform="translate(0,2.5e-5)"
         id="path40" /></clipPath><clipPath
       clipPathUnits="userSpaceOnUse"
       id="clipPath42"><path
         d="M 7503.75,3.75 H 3.74609 v 5000 H 7503.75 Z"
         transform="translate(0,2.5e-5)"
         id="path42" /></clipPath><clipPath
       clipPathUnits="userSpaceOnUse"
       id="clipPath44"><path
         d="M 7503.75,3.75 H 3.74609 v 5000 H 7503.75 Z"
         transform="translate(0,2.5e-5)"
         id="path44" /></clipPath><clipPath
       clipPathUnits="userSpaceOnUse"
       id="clipPath46"><path
         d="M 7503.75,3.75 H 3.74609 v 5000 H 7503.75 Z"
         transform="translate(0,2.5e-5)"
         id="path46" /></clipPath><clipPath
       clipPathUnits="userSpaceOnUse"
       id="clipPath48"><path
         d="M 7503.75,3.75 H 3.74609 v 5000 H 7503.75 Z"
         transform="translate(0,2.5e-5)"
         id="path48" /></clipPath><clipPath
       clipPathUnits="userSpaceOnUse"
       id="clipPath50"><path
         d="M 7503.75,3.75 H 3.74609 v 5000 H 7503.75 Z"
         transform="translate(0,2.5e-5)"
         id="path50" /></clipPath><clipPath
       clipPathUnits="userSpaceOnUse"
       id="clipPath52"><path
         d="M 7503.75,3.75 H 3.74609 v 5000 H 7503.75 Z"
         transform="translate(0,2.5e-5)"
         id="path52" /></clipPath><clipPath
       clipPathUnits="userSpaceOnUse"
       id="clipPath54"><path
         d="M 7503.75,3.75 H 3.74609 v 5000 H 7503.75 Z"
         transform="translate(0,2.5e-5)"
         id="path54" /></clipPath><clipPath
       clipPathUnits="userSpaceOnUse"
       id="clipPath56"><path
         d="M 7503.75,3.75 H 3.74609 v 5000 H 7503.75 Z"
         transform="translate(0,2.5e-5)"
         id="path56" /></clipPath><clipPath
       clipPathUnits="userSpaceOnUse"
       id="clipPath58"><path
         d="M 7503.75,3.75 H 3.74609 v 5000 H 7503.75 Z"
         transform="translate(0,2.5e-5)"
         id="path58" /></clipPath><clipPath
       clipPathUnits="userSpaceOnUse"
       id="clipPath60"><path
         d="M 7503.75,3.75 H 3.74609 v 5000 H 7503.75 Z"
         transform="translate(0,2.5e-5)"
         id="path60" /></clipPath><clipPath
       clipPathUnits="userSpaceOnUse"
       id="clipPath62"><path
         d="M 7503.75,3.75 H 3.74609 v 5000 H 7503.75 Z"
         transform="translate(0,2.5e-5)"
         id="path62" /></clipPath><clipPath
       clipPathUnits="userSpaceOnUse"
       id="clipPath64"><path
         d="M 7503.75,3.75 H 3.74609 v 5000 H 7503.75 Z"
         transform="translate(0,2.5e-5)"
         id="path64" /></clipPath><clipPath
       clipPathUnits="userSpaceOnUse"
       id="clipPath66"><path
         d="M 7503.75,3.75 H 3.74609 v 5000 H 7503.75 Z"
         transform="translate(0,2.5e-5)"
         id="path66" /></clipPath><clipPath
       clipPathUnits="userSpaceOnUse"
       id="clipPath68"><path
         d="M 7503.75,3.75 H 3.74609 v 5000 H 7503.75 Z"
         transform="translate(0,2.5e-5)"
         id="path68" /></clipPath><clipPath
       clipPathUnits="userSpaceOnUse"
       id="clipPath70"><path
         d="M 7503.75,3.75 H 3.74609 v 5000 H 7503.75 Z"
         transform="translate(0,2.5e-5)"
         id="path70" /></clipPath><clipPath
       clipPathUnits="userSpaceOnUse"
       id="clipPath72"><path
         d="M 7503.75,3.75 H 3.74609 v 5000 H 7503.75 Z"
         transform="translate(0,2.5e-5)"
         id="path72" /></clipPath><clipPath
       clipPathUnits="userSpaceOnUse"
       id="clipPath74"><path
         d="M 7503.75,3.75 H 3.74609 v 5000 H 7503.75 Z"
         transform="translate(0,2.5e-5)"
         id="path74" /></clipPath><clipPath
       clipPathUnits="userSpaceOnUse"
       id="clipPath76"><path
         d="M 7503.75,3.75 H 3.74609 v 5000 H 7503.75 Z"
         transform="translate(0,2.5e-5)"
         id="path76" /></clipPath><clipPath
       clipPathUnits="userSpaceOnUse"
       id="clipPath78"><path
         d="M 7503.75,3.75 H 3.74609 v 5000 H 7503.75 Z"
         transform="translate(0,2.5e-5)"
         id="path78" /></clipPath><clipPath
       clipPathUnits="userSpaceOnUse"
       id="clipPath80"><path
         d="M 7503.75,3.75 H 3.74609 v 5000 H 7503.75 Z"
         transform="translate(0,2.5e-5)"
         id="path80" /></clipPath><clipPath
       clipPathUnits="userSpaceOnUse"
       id="clipPath82"><path
         d="M 7503.75,3.75 H 3.74609 v 5000 H 7503.75 Z"
         transform="translate(0,2.5e-5)"
         id="path82" /></clipPath><clipPath
       clipPathUnits="userSpaceOnUse"
       id="clipPath84"><path
         d="M 7503.75,3.75 H 3.74609 v 5000 H 7503.75 Z"
         transform="translate(0,2.5e-5)"
         id="path84" /></clipPath><clipPath
       clipPathUnits="userSpaceOnUse"
       id="clipPath86"><path
         d="M 7503.75,3.75 H 3.74609 v 5000 H 7503.75 Z"
         transform="translate(0,2.5e-5)"
         id="path86" /></clipPath><clipPath
       clipPathUnits="userSpaceOnUse"
       id="clipPath88"><path
         d="M 7503.75,3.75 H 3.74609 v 5000 H 7503.75 Z"
         transform="translate(0,2.5e-5)"
         id="path88" /></clipPath><clipPath
       clipPathUnits="userSpaceOnUse"
       id="clipPath90"><path
         d="M 7503.75,3.75 H 3.74609 v 5000 H 7503.75 Z"
         transform="translate(0,2.5e-5)"
         id="path90" /></clipPath><clipPath
       clipPathUnits="userSpaceOnUse"
       id="clipPath92"><path
         d="M 7503.75,3.75 H 3.74609 v 5000 H 7503.75 Z"
         transform="translate(0,2.5e-5)"
         id="path92" /></clipPath><clipPath
       clipPathUnits="userSpaceOnUse"
       id="clipPath94"><path
         d="M 7503.75,3.75 H 3.74609 v 5000 H 7503.75 Z"
         transform="translate(0,2.5e-5)"
         id="path94" /></clipPath><clipPath
       clipPathUnits="userSpaceOnUse"
       id="clipPath96"><path
         d="M 7503.75,3.75 H 3.74609 v 5000 H 7503.75 Z"
         transform="translate(0,2.5e-5)"
         id="path96" /></clipPath><clipPath
       clipPathUnits="userSpaceOnUse"
       id="clipPath98"><path
         d="M 7503.75,3.75 H 3.74609 v 5000 H 7503.75 Z"
         transform="translate(0,2.5e-5)"
         id="path98" /></clipPath><clipPath
       clipPathUnits="userSpaceOnUse"
       id="clipPath100"><path
         d="M 7503.75,3.75 H 3.74609 v 5000 H 7503.75 Z"
         transform="translate(0,2.5e-5)"
         id="path100" /></clipPath><clipPath
       clipPathUnits="userSpaceOnUse"
       id="clipPath102"><path
         d="M 7503.75,3.75 H 3.74609 v 5000 H 7503.75 Z"
         transform="translate(0,2.5e-5)"
         id="path102" /></clipPath><clipPath
       clipPathUnits="userSpaceOnUse"
       id="clipPath104"><path
         d="M 7503.75,3.75 H 3.74609 v 5000 H 7503.75 Z"
         transform="translate(0,2.5e-5)"
         id="path104" /></clipPath><clipPath
       clipPathUnits="userSpaceOnUse"
       id="clipPath106"><path
         d="M 7503.75,3.75 H 3.74609 v 5000 H 7503.75 Z"
         transform="translate(0,2.5e-5)"
         id="path106" /></clipPath><clipPath
       clipPathUnits="userSpaceOnUse"
       id="clipPath108"><path
         d="M 7503.75,3.75 H 3.74609 v 5000 H 7503.75 Z"
         transform="translate(0,2.5e-5)"
         id="path108" /></clipPath><clipPath
       clipPathUnits="userSpaceOnUse"
       id="clipPath110"><path
         d="M 7503.75,3.75 H 3.74609 v 5000 H 7503.75 Z"
         transform="translate(0,2.5e-5)"
         id="path110" /></clipPath><clipPath
       clipPathUnits="userSpaceOnUse"
       id="clipPath112"><path
         d="M 7503.75,3.75 H 3.74609 v 5000 H 7503.75 Z"
         transform="translate(0,2.5e-5)"
         id="path112" /></clipPath><clipPath
       clipPathUnits="userSpaceOnUse"
       id="clipPath114"><path
         d="M 7503.75,3.75 H 3.74609 v 5000 H 7503.75 Z"
         transform="translate(0,2.5e-5)"
         id="path114" /></clipPath></defs><sodipodi:namedview
     id="namedview1"
     pagecolor="#505050"
     bordercolor="#eeeeee"
     borderopacity="1"
     inkscape:showpageshadow="0"
     inkscape:pageopacity="0"
     inkscape:pagecheckerboard="0"
     inkscape:deskcolor="#d1d1d1"><inkscape:page
       x="0"
       y="0"
       inkscape:label="1"
       id="page1"
       width="1001"
       height="667.66669"
       margin="0"
       bleed="0"
       inkscape:export-filename="../../Desktop/Gneris NexTech/Projects/landing-page_vfm-topografia/src/assets/4048563.svg"
       inkscape:export-xdpi="96"
       inkscape:export-ydpi="96" /></sodipodi:namedview><g
     id="g1"
     inkscape:groupmode="layer"
     inkscape:label="1"><g
       id="group-R5"><path
         id="path3"
         d="m 6070.84,5082.78 c -124.14,7.24 -249.43,-5.46 -369.58,-37.47 -29.08,-7.74 -58.9,-17.17 -81.24,-37.34 -87.42,-78.88 5.53,-223.1 -13.6,-339.29 -20.72,-125.89 -154.49,-180.95 -246.93,-246.85 -66.86,-47.67 -89.21,-70.12 -116.93,-147.85 -18.12,-50.8 -12.33,-108.58 -60.77,-144.62 -32.06,-23.85 -76.51,-25.72 -108.51,-49.64 -69.91,-52.26 -53.37,-185.41 -135.48,-215 -24.78,-8.93 -52.1,-4.77 -78.17,-1.04 -107.87,15.41 -217.08,21.47 -326,18.07 -27.34,-0.85 -55.36,-2.2 -81.41,6.18 -90.7,29.23 -151.84,80.4 -251.96,94.38 -111.64,15.6 -225.07,20.69 -336.25,-1.5 -167.85,-33.52 -329.88,-137.42 -393.37,-296.38 -66.2,-165.75 -10.07,-338.44 -31.24,-508.83 -23.83,-191.83 -177.93,-95.09 -267.2,-217.92 -17.95,-24.7 -22.89,-56.19 -28.62,-86.18 -27.3,-142.9 -94.1,-290.91 -223.79,-356.83 -68.35,-34.75 -149.38,-44.05 -210.89,-89.85 -67.85,-50.5 -100.53,-137.09 -165.96,-190.7 -57.76,-47.32 -137.04,-65.58 -187.89,-120.25 -46.85,-50.37 -60.87,-122.11 -72.96,-189.83 -11.51,-64.5 -19.27,-141.18 28.74,-185.77 31.99,-29.71 80.62,-35.73 112.88,-65.15 66.78,-60.85 27.28,-178.22 74.99,-254.95 19.5,-31.34 51.48,-52.29 80.38,-75.27 138.17,-109.83 239.69,-271.33 392.68,-363.658 138.78,-83.781 309.34,-89.422 471.42,-92.73 271.45,-5.52 542.9,-11.063 814.36,-16.59 69.58,-1.41 140.71,-2.621 206.86,18.98 43.02,14.028 82.41,37.246 120.42,61.789 102.22,65.999 197.38,142.889 283.35,228.979 30.06,30.09 61,66.51 58.38,108.96 -2.14,34.82 -26.53,63.77 -50.53,89.08 -86.5,91.23 -184.15,171.89 -290.07,239.61 -94.27,60.28 -197.97,112.89 -265.25,202.31 -131.58,174.9 -73.36,439.62 76.32,599.32 149.68,159.68 366.41,236.35 577.77,293.17 162.84,43.77 343.22,77.6 494.45,3.03 89.9,-44.33 158.32,-122.14 241.02,-178.76 209.81,-143.63 514.57,-128.97 709.62,34.13 90.27,75.49 166.96,182.8 283.12,201.6 104.38,16.89 218.21,-44.13 313.27,2.19 35.29,17.19 62.35,47.15 92.45,72.36 82.79,69.37 193.86,103.95 301.41,93.83 77.88,-7.32 153.08,-36.87 231.31,-37.5 78.23,-0.63 166.72,41.16 180.39,118.19"
         style="fill:none;stroke:#919191;stroke-width:30;stroke-linecap:round;stroke-linejoin:miter;stroke-miterlimit:10;stroke-dasharray:none;stroke-opacity:0.05576631"
         transform="matrix(0.13333333,0,0,-0.13333333,0,667.66667)"
         clip-path="url(#clipPath4)" /><path
         id="path5"
         d="M 1179.85,4176.38 C 987.742,4010.3 954.352,3724.79 804.77,3519.59 749.09,3443.2 678.25,3379.39 607.969,3316.19 471.922,3193.85 335.879,3071.51 199.832,2949.18 105.609,2864.45 9.91406,2777.95 -54.9727,2669.11 -119.855,2560.26 -150.406,2423.63 -105.18,2305.25 c 56.4183,-147.63 221.532,-233.99 379.582,-233.73 158.051,0.28 307.946,72.74 436.368,164.87 273.207,196.01 469.3,479.78 715.27,709.04 305.56,284.8 685.69,483.2 976.85,782.7 71.19,73.24 138.64,156.04 162.33,255.39 23.68,99.35 -8.35,218.36 -97.56,268.1 -105.92,59.06 -234.16,5.53 -343.71,49.8 -101.28,40.92 -154.85,134.81 -275.1,132.9 -95.86,-1.52 -193.13,-58.27 -282.65,-87.05 -135.81,-43.66 -275.39,-74.97 -386.35,-170.89 z"
         style="fill:none;stroke:#919191;stroke-width:30;stroke-linecap:round;stroke-linejoin:miter;stroke-miterlimit:10;stroke-dasharray:none;stroke-opacity:0.05576631"
         transform="matrix(0.13333333,0,0,-0.13333333,0,667.66667)"
         clip-path="url(#clipPath6)" /><path
         id="path7"
         d="M 1183.36,-88.6406 C 1093,-44.6094 1000.85,0.679688 929.633,71.6211 858.418,142.57 810.676,245.109 830.918,343.57 c 11.766,57.231 44.836,107.578 79.437,154.649 57.922,78.812 124.135,154.679 210.055,201.41 161.86,88.031 362.26,57.23 536.86,-1.617 174.6,-58.864 343.75,-143.961 527.32,-159.84 265.91,-23 531.23,102.348 795.05,61.949 107.4,-16.449 208.58,-59.723 308.42,-102.601 174.1,-74.782 348.19,-149.551 522.29,-224.329 34.06,-14.632 69.02,-29.851 95.24,-56.062 86.99,-86.938 35.44,-234.1485 -24.86,-341.348"
         style="fill:none;stroke:#919191;stroke-width:30;stroke-linecap:round;stroke-linejoin:miter;stroke-miterlimit:10;stroke-dasharray:none;stroke-opacity:0.05576631"
         transform="matrix(0.13333333,0,0,-0.13333333,0,667.66667)"
         clip-path="url(#clipPath8)" /><path
         id="path9"
         d="m 6226.72,1489.85 c -111.75,-9.44 -223.22,-104.61 -210.17,-215.98 14.25,-121.57 151.42,-182.45 227.62,-278.249 44.37,-55.781 68.88,-125.902 116.79,-178.68 80.69,-88.839 227.95,-103.699 330,-44.152 73.52,42.91 222.01,213.75 221.06,302.351 -2.18,203.91 -520.03,428.7 -685.3,414.71 z"
         style="fill:none;stroke:#919191;stroke-width:30;stroke-linecap:round;stroke-linejoin:miter;stroke-miterlimit:10;stroke-dasharray:none;stroke-opacity:0.05576631"
         transform="matrix(0.13333333,0,0,-0.13333333,0,667.66667)"
         clip-path="url(#clipPath10)" /><path
         id="path11"
         d="m 3097.83,2385.74 c -74.17,-47.62 -167.21,-64.76 -232.19,-124.31 -56.77,-52.04 -84.81,-130.31 -143.57,-180.1 -60.64,-51.4 -156.56,-78.37 -170.8,-156.57 -18.32,-100.59 120.25,-167.9 127.61,-269.88 2.67,-36.93 -12.61,-75.52 0.37,-110.2 16.19,-43.28 67.02,-59.66 107.81,-81.35 128.98,-68.6 189.32,-226.8 315.98,-299.58 85.14,-48.93 188.03,-52.29 286.21,-54.4 238.06,-5.13 476.12,-10.26 714.18,-15.38 75.11,-1.62 151.94,-2.99 223.3,20.51 71.35,23.5 137.46,77.05 154.87,150.14 22.73,95.46 -42.28,190.7 -118.84,252.09 -76.57,61.38 -168.33,104.62 -234.01,177.53 -269.36,299.03 37.68,799.92 -270.41,1081.16 -347.38,317.09 -539.22,-247.55 -760.51,-389.66 z"
         style="fill:none;stroke:#919191;stroke-width:10;stroke-linecap:round;stroke-linejoin:miter;stroke-miterlimit:10;stroke-dasharray:none;stroke-opacity:0.05576631"
         transform="matrix(0.13333333,0,0,-0.13333333,0,667.66667)"
         clip-path="url(#clipPath12)" /><path
         id="path13"
         d="m 3271.05,2238.83 c -80.85,-45.54 -187.18,-54.36 -243.16,-128.35 -18.85,-24.93 -30.23,-55.62 -52.95,-77.07 -15.82,-14.94 -35.97,-24.25 -54.54,-35.6 -29.54,-18.03 -56.27,-42.55 -70.5,-74.1 -14.24,-31.55 -14.16,-70.82 5.93,-99.01 6.92,-9.72 15.94,-17.9 21.95,-28.21 24.09,-41.23 -7.51,-99.2 17.88,-139.65 13.04,-20.79 37.54,-30.66 59.8,-40.97 42.69,-19.77 82.93,-45.92 114.76,-80.56 41.55,-45.21 67.8,-103.62 113.48,-144.66 60.83,-54.62 146.31,-70.3 227.24,-81.96 169.89,-24.48 347.26,-40.42 509.79,14.77 25.56,8.67 52.18,20.38 66.51,43.25 19.31,30.81 10.06,71.24 -4.08,104.74 -21.45,50.82 -52.88,97.4 -91.96,136.32 -17.62,17.53 -36.83,33.61 -52.28,53.08 -33.54,42.27 -46.69,97.09 -53.66,150.61 -25.27,193.78 31.94,393.2 -0.75,585.12 -10.61,62.28 -48.4,124.25 -113.88,138.76 -78.23,17.32 -147.69,-42.49 -197.49,-95.01 -65.36,-68.93 -117.32,-153.75 -202.09,-201.5 z"
         style="fill:none;stroke:#919191;stroke-width:10;stroke-linecap:round;stroke-linejoin:miter;stroke-miterlimit:10;stroke-dasharray:none;stroke-opacity:0.05576631"
         transform="matrix(0.13333333,0,0,-0.13333333,0,667.66667)"
         clip-path="url(#clipPath14)" /><path
         id="path15"
         d="m 3324.23,2049.7 c -64.24,-29.4 -134.6,-49.19 -188.69,-94.64 -54.09,-45.45 -86.16,-128.79 -47.13,-187.69 12.68,-19.15 31.35,-33.53 45.55,-51.59 16.56,-21.05 26.54,-46.42 40.43,-69.32 34.37,-56.67 92.06,-96.39 154.06,-119.83 61.99,-23.43 128.54,-31.92 194.59,-37.41 27.6,-2.3 55.85,-4.04 82.58,3.18 26.74,7.23 52.11,25.05 61.29,51.17 14.77,42.03 -15.22,84.88 -37.49,123.45 -63.24,109.54 -69.28,243.75 -38.41,364.35 9.76,38.14 54.05,102.57 18.04,135.7 -28.35,26.08 -82.27,14.26 -111.26,-3.05 -60.24,-35.94 -108.12,-84.38 -173.56,-114.32 z"
         style="fill:none;stroke:#919191;stroke-width:10;stroke-linecap:round;stroke-linejoin:miter;stroke-miterlimit:10;stroke-dasharray:none;stroke-opacity:0.05576631"
         transform="matrix(0.13333333,0,0,-0.13333333,0,667.66667)"
         clip-path="url(#clipPath16)" /><path
         id="path17"
         d="m 1172.09,3821.98 c 16.6,50.05 29.31,102.77 60.15,145.54 41.9,58.12 111.43,89.57 180.24,109.53 68.8,19.97 140.64,31.24 205.74,61.15 53.14,24.42 107.71,61.99 164.65,48.67 43.55,-10.19 74.45,-47.64 111.81,-72.24 78.03,-51.37 178.83,-44.12 272.22,-47.01 28.67,-0.89 61.33,-5.05 77.75,-28.57 10.8,-15.48 11.63,-35.71 10.32,-54.54 -4.39,-63.48 -29.14,-125.39 -69.71,-174.41 -57.48,-69.44 -141.68,-109.71 -219.21,-155.7 -118.95,-70.54 -227.13,-158.56 -348.56,-224.74 -147.72,-80.52 -368.7,-146.67 -515.35,-27.65 -137.988,111.98 28.57,295.18 69.95,419.97 z"
         style="fill:none;stroke:#919191;stroke-width:10;stroke-linecap:round;stroke-linejoin:miter;stroke-miterlimit:10;stroke-dasharray:none;stroke-opacity:0.05576631"
         transform="matrix(0.13333333,0,0,-0.13333333,0,667.66667)"
         clip-path="url(#clipPath18)" /><path
         id="path19"
         d="m 733.711,3174.15 c -94.52,-72.02 -189.039,-144.04 -283.559,-216.06 -81.39,-62.02 -163.55,-124.76 -228.82,-203.57 -65.266,-78.82 -113.082,-176.3 -113.863,-278.62 -0.309,-39.82 7.258,-81.37 31.621,-112.85 24.062,-31.09 61.941,-48.85 100.336,-57.27 123.66,-27.1 249.59,32.79 353.683,104.84 189.481,131.14 343.793,305.9 496.071,478.85 54.6,62 91.62,124.7 61.06,208.16 -16.99,46.38 -46.62,101.36 -85.81,132.87 -101.125,81.32 -244.293,9.5 -330.719,-56.35 z"
         style="fill:none;stroke:#919191;stroke-width:10;stroke-linecap:round;stroke-linejoin:miter;stroke-miterlimit:10;stroke-dasharray:none;stroke-opacity:0.05576631"
         transform="matrix(0.13333333,0,0,-0.13333333,0,667.66667)"
         clip-path="url(#clipPath20)" /><path
         id="path21"
         d="m 596.551,2814.4 c -24.832,-15.33 -50.703,-29.56 -72.035,-49.49 -21.328,-19.92 -38.039,-46.79 -38.602,-75.98 -0.074,-4.19 0.219,-8.53 2.156,-12.24 2.118,-4.04 5.961,-6.9 9.91,-9.19 23.782,-13.81 54.219,-11.63 79.586,-1 25.364,10.63 46.754,28.73 67.704,46.55 25.839,21.97 51.679,43.95 77.523,65.92 25.609,21.78 131.602,139.36 48.094,155.06 -41.137,7.73 -140.157,-98.53 -174.336,-119.63 z"
         style="fill:none;stroke:#919191;stroke-width:10;stroke-linecap:round;stroke-linejoin:miter;stroke-miterlimit:10;stroke-dasharray:none;stroke-opacity:0.05576631"
         transform="matrix(0.13333333,0,0,-0.13333333,0,667.66667)"
         clip-path="url(#clipPath22)" /><path
         id="path23"
         d="m 1458.27,3781.2 c -24.75,-34.91 -41.49,-74.72 -58.05,-114.17 -5.81,-13.84 -11.72,-28.99 -7.76,-43.47 5.11,-18.64 25.7,-29.63 45.03,-29.82 19.33,-0.2 37.65,7.98 55.09,16.34 75.19,36.04 147.3,78.36 216.34,125.13 41,27.77 82.51,65.97 60.54,119.42 -14.11,34.33 -40.47,46.5 -75.38,43.55 -81.87,-6.92 -188.08,-49.67 -235.81,-116.98 z"
         style="fill:none;stroke:#919191;stroke-width:10;stroke-linecap:round;stroke-linejoin:miter;stroke-miterlimit:10;stroke-dasharray:none;stroke-opacity:0.05576631"
         transform="matrix(0.13333333,0,0,-0.13333333,0,667.66667)"
         clip-path="url(#clipPath24)" /><path
         id="path25"
         d="m 6342.62,1278.38 c -28.41,3.1 -63.98,-0.57 -75.06,-26.91 -9.93,-23.6 7.68,-50.44 29.22,-64.31 21.54,-13.86 47.37,-20.37 67.93,-35.64 33.31,-24.71 46.84,-67.17 66.83,-103.51 23.53,-42.75 60.22,-80.569 107.05,-94.291 46.83,-13.707 103.82,2.133 128.45,44.261 93.07,159.25 -220.41,269.03 -324.42,280.4 z"
         style="fill:none;stroke:#919191;stroke-width:10;stroke-linecap:round;stroke-linejoin:miter;stroke-miterlimit:10;stroke-dasharray:none;stroke-opacity:0.05576631"
         transform="matrix(0.13333333,0,0,-0.13333333,0,667.66667)"
         clip-path="url(#clipPath26)" /><path
         id="path27"
         d="m 6336.95,5030.45 c -136.9,-90.02 -344.96,-39.3 -457.21,-158.66 -97.63,-103.82 -64.48,-277.38 -138.42,-399.21 -67.06,-110.49 -206.39,-154.56 -291.78,-251.57 -79.68,-90.51 -104.21,-217.2 -172.18,-316.8 -118.18,-173.17 -346.61,-235.12 -556.26,-236.12 -209.65,-1.01 -418.37,45.53 -627.59,32.06 -100.82,-6.49 -210.76,-33.17 -268.97,-115.75 -50.56,-71.71 -48.58,-170.28 -16.93,-252.12 31.64,-81.85 88.89,-150.77 145.18,-218.08 66.59,-79.62 135.54,-161.19 227.14,-210.03 66.43,-35.42 141.82,-51.7 216.98,-55.91 361.55,-20.28 719.91,226.9 1067.78,126.29 122.36,-35.39 228.38,-111 341.84,-168.9 113.46,-57.9 246.52,-98.74 367.3,-58.3 120.99,40.52 207.4,155.35 330.33,189.52 118.14,32.86 250.46,-14.77 364.23,30.99 51.9,20.88 94.39,59.26 139.72,92.05 102.43,74.06 223.96,121.45 349.48,136.27 141.91,16.75 308.68,1.55 402.47,109.36"
         style="fill:none;stroke:#919191;stroke-width:10;stroke-linecap:round;stroke-linejoin:miter;stroke-miterlimit:10;stroke-dasharray:none;stroke-opacity:0.05576631"
         transform="matrix(0.13333333,0,0,-0.13333333,0,667.66667)"
         clip-path="url(#clipPath28)" /><path
         id="path29"
         d="m 6661.42,5028.86 c -162.01,-85.54 -321.08,-176.64 -476.86,-273.07 -49.85,-30.86 -100.23,-63 -137.86,-107.96 -114.52,-136.78 -85.12,-356.5 -205.4,-488.23 -77.61,-84.98 -203.72,-116.01 -273.72,-207.35 -71.88,-93.81 -68.27,-230.57 -143.47,-321.73 -48.41,-58.68 -122.31,-89.38 -194.52,-113.33 -91.76,-30.42 -185.92,-53.58 -281.31,-69.18 -112.89,-18.46 -244.83,-37.21 -301.27,-136.71 -10.26,-18.1 -17.02,-41.3 -6.36,-59.17 7.41,-12.4 21.41,-19.08 34.83,-24.44 226.31,-90.33 482.28,3.76 725.04,-17.42 98.07,-8.55 194.42,-36.38 281.95,-81.43 83.55,-43 161.88,-102.48 254.71,-117.1 174.34,-27.45 332.52,109.71 507.96,128.84 76.34,8.33 156.35,-5.72 228.42,20.83 64.76,23.85 113.37,76.93 165.67,121.96 108.91,93.78 243.36,157.6 384.87,182.71 110.37,19.58 225.12,16.22 332.07,49.8 59.76,18.77 122.68,58.04 131.01,120.11"
         style="fill:none;stroke:#919191;stroke-width:10;stroke-linecap:round;stroke-linejoin:miter;stroke-miterlimit:10;stroke-dasharray:none;stroke-opacity:0.05576631"
         transform="matrix(0.13333333,0,0,-0.13333333,0,667.66667)"
         clip-path="url(#clipPath30)" /><path
         id="path31"
         d="m 7131.99,5048.2 c -250.71,-145.2 -500.36,-292.23 -748.91,-441.11 -43.81,-26.25 -87.85,-52.72 -126.42,-86.2 -63.65,-55.22 -110.96,-129.06 -134.5,-209.97 -29.45,-101.17 -23.55,-214.74 -79.55,-303.99 -47.38,-75.48 -130.78,-119.73 -192.64,-183.87 -77.31,-80.14 -119.18,-193.27 -112.7,-304.43 1.52,-25.92 5.78,-52.4 18.93,-74.78 13.32,-22.68 34.75,-39.43 56.99,-53.47 141.74,-89.47 326.51,-84.81 485.3,-31.19 158.8,53.64 298.58,150.64 439.77,240.96 45.63,29.19 92,57.97 142.62,77.29 92.77,35.4 194.34,37.14 292.8,50.08 186.6,24.53 381.18,102.3 476.6,264.53"
         style="fill:none;stroke:#919191;stroke-width:10;stroke-linecap:round;stroke-linejoin:miter;stroke-miterlimit:10;stroke-dasharray:none;stroke-opacity:0.05576631"
         transform="matrix(0.13333333,0,0,-0.13333333,0,667.66667)"
         clip-path="url(#clipPath32)" /><path
         id="path33"
         d="m 7546.46,5042.47 c -94.14,-35.62 -162.4,-116.11 -238.38,-182.12 C 7141.6,4715.69 6930,4635.99 6739.8,4524.34 c -69.73,-40.94 -138.23,-87.65 -186.46,-152.55 -43.55,-58.59 -68.19,-128.72 -92.2,-197.66 -26.22,-75.27 -52.44,-150.54 -78.66,-225.8 -10.24,-29.36 -19.3,-65.45 1.4,-88.65 11.25,-12.61 28.66,-17.63 45.35,-20.33 79.62,-12.86 159.68,14.12 235.83,40.71 133.46,46.6 266.92,93.19 400.39,139.79 100.94,35.24 202.66,70.84 294.7,125.26 92.06,54.42 174.89,129.62 220.7,226.24"
         style="fill:none;stroke:#919191;stroke-width:10;stroke-linecap:round;stroke-linejoin:miter;stroke-miterlimit:10;stroke-dasharray:none;stroke-opacity:0.05576631"
         transform="matrix(0.13333333,0,0,-0.13333333,0,667.66667)"
         clip-path="url(#clipPath34)" /><path
         id="path35"
         d="m 7566.97,4813.89 c -41.59,-114.3 -141.34,-197.39 -245.28,-260.57 -103.94,-63.19 -216.95,-112.84 -311.14,-189.8 -14.5,-11.84 -29.93,-28.62 -24.95,-46.65 3.18,-11.5 13.94,-19.21 24.76,-24.23 57.45,-26.59 124.39,-1.56 182.57,23.42 53.63,23.04 107.27,46.07 160.91,69.1 37.81,16.24 75.78,32.56 110.84,54.12 70.08,43.12 125.88,105.48 180.62,166.93"
         style="fill:none;stroke:#919191;stroke-width:10;stroke-linecap:round;stroke-linejoin:miter;stroke-miterlimit:10;stroke-dasharray:none;stroke-opacity:0.05576631"
         transform="matrix(0.13333333,0,0,-0.13333333,0,667.66667)"
         clip-path="url(#clipPath36)" /><path
         id="path37"
         d="m 2200.92,5143.54 c -65.99,-104.76 -103.31,-227.38 -106.87,-351.15 -1.33,-46.06 2.11,-93.11 19.09,-135.96 41.48,-104.69 152.86,-162.56 259.11,-199.85 106.25,-37.3 221.2,-65.98 302.19,-144.21 105.72,-102.11 132.62,-269.71 247.45,-361.45 75.88,-60.62 180.41,-77.38 276.11,-60.84 95.7,16.55 183.75,63.32 263.55,118.68 57.22,39.69 111.41,84.27 172.84,117.06 221.26,118.08 491.43,64.8 734.22,1.96 127.01,-32.87 281.23,-60.79 373.26,32.7 30.56,31.04 51.16,73.56 89.79,93.7 21.34,11.13 46.22,14.17 67.38,25.64 64.77,35.11 66.16,125.7 98.37,191.95 53.91,110.87 192.63,147.87 281.79,233.03 109.55,104.6 130.1,289.77 46.15,415.85"
         style="fill:none;stroke:#919191;stroke-width:10;stroke-linecap:round;stroke-linejoin:miter;stroke-miterlimit:10;stroke-dasharray:none;stroke-opacity:0.05576631"
         transform="matrix(0.13333333,0,0,-0.13333333,0,667.66667)"
         clip-path="url(#clipPath38)" /><path
         id="path39"
         d="m 2401.18,5069.14 c -51.36,-38.34 -75.75,-105.02 -76.21,-169.1 -0.68,-94.88 48.04,-188.76 125.99,-242.83 125.23,-86.84 312.67,-74.07 407.91,-193.03 46.45,-58 60.56,-137.19 108.72,-193.77 78.43,-92.15 222.02,-95.43 336.96,-57.6 114.94,37.83 217.69,107.93 334.11,140.92 255.9,72.5 524.71,-44.31 790.62,-49.07 49.79,-0.89 103.65,3.7 141.47,36.09 34.07,29.19 48.58,75.57 79.82,107.77 51.08,52.65 137.94,59.09 185.8,114.68 29.72,34.52 39.28,82.61 67.58,118.31 17.67,22.28 41.64,38.49 62.86,57.42 108.45,96.75 134.12,273.7 57.61,397.27"
         style="fill:none;stroke:#919191;stroke-width:10;stroke-linecap:round;stroke-linejoin:miter;stroke-miterlimit:10;stroke-dasharray:none;stroke-opacity:0.05576631"
         transform="matrix(0.13333333,0,0,-0.13333333,0,667.66667)"
         clip-path="url(#clipPath40)" /><path
         id="path41"
         d="m 2757.92,5049.99 c -38.98,-34.94 -58.36,-90.47 -49.57,-142.08 8.79,-51.6 45.44,-97.59 93.79,-117.66 41.47,-17.22 88.76,-15.94 130.37,-32.82 103.41,-41.95 141.08,-180.2 244.09,-223.1 86.34,-35.95 182.52,8.05 270.68,39.24 181.57,64.27 382.01,74.07 568.99,27.82 70.1,-17.33 140.37,-42.56 212.37,-36.96 52.53,4.09 102.24,24.41 150.95,44.48 54.59,22.49 109.18,44.98 163.77,67.48 31.63,13.04 63.57,26.24 91.49,46.01 53.73,38.06 88.72,98.15 108.19,161.06 22.18,71.67 25.98,148.94 10.92,222.44"
         style="fill:none;stroke:#919191;stroke-width:10;stroke-linecap:round;stroke-linejoin:miter;stroke-miterlimit:10;stroke-dasharray:none;stroke-opacity:0.05576631"
         transform="matrix(0.13333333,0,0,-0.13333333,0,667.66667)"
         clip-path="url(#clipPath42)" /><path
         id="path43"
         d="m 3187.6,5055.08 c -20.4,-59.54 17.95,-126.79 72.24,-158.65 54.28,-31.86 120.05,-36.16 182.99,-36.16 131.8,0.02 264.13,15.35 395.04,0.14 83.84,-9.75 165.95,-31.92 249.97,-39.81 84.03,-7.9 173.21,-0.09 244.39,45.26 71.19,45.34 118.26,135.57 93.62,216.29"
         style="fill:none;stroke:#919191;stroke-width:10;stroke-linecap:round;stroke-linejoin:miter;stroke-miterlimit:10;stroke-dasharray:none;stroke-opacity:0.05576631"
         transform="matrix(0.13333333,0,0,-0.13333333,0,667.66667)"
         clip-path="url(#clipPath44)" /><path
         id="path45"
         d="M 2509.22,3515.09 C 2362.2,3410.58 2215.18,3306.06 2068.16,3201.54 1940.4,3110.72 1812.55,3019.82 1690.34,2921.66 1557.04,2814.58 1428.93,2697 1338.19,2552.08 c -90.74,-144.9 -141.5,-320.94 -109.49,-488.89 11.67,-61.25 34.97,-121.84 77.2,-167.73 78.85,-85.7 212.6,-104.3 323.59,-69.01 110.99,35.29 202.12,115.74 277.93,204.16 58.94,68.73 111.97,144.6 185.89,196.88 108.93,77.05 256.57,98.01 344.71,198.17 44.74,50.84 68.84,116.96 112.03,169.13 50.98,61.57 125.45,99.66 201.99,122.71 78.75,23.7 169,37.72 219.12,102.92 56.28,73.2 37.64,180.99 81.35,262.32 44.16,82.19 121.09,123.86 127.16,225.26 4.47,74.77 -16.59,164.35 -50.09,231.53 -60.29,120.89 -192.07,143.62 -316.74,126.04 -114.47,-16.15 -211.69,-85.13 -303.62,-150.48 z"
         style="fill:none;stroke:#919191;stroke-width:10;stroke-linecap:round;stroke-linejoin:miter;stroke-miterlimit:10;stroke-dasharray:none;stroke-opacity:0.05576631"
         transform="matrix(0.13333333,0,0,-0.13333333,0,667.66667)"
         clip-path="url(#clipPath46)" /><path
         id="path47"
         d="m 1797.15,2611.73 c -89.96,-78.62 -185.19,-172.77 -188.62,-292.2 -0.5,-17.74 1.97,-37.36 15.12,-49.29 10.04,-9.1 24.4,-11.77 37.96,-11.81 55.11,-0.15 103.11,35.86 144.59,72.13 206.57,180.65 374.93,415.82 624.59,529.7 76.19,34.75 157.67,56.9 233.57,92.28 92.94,43.32 190.45,117.3 204.92,226.22 11.32,85.29 -41.49,149.48 -129.01,147.02 -105.45,-2.96 -198.82,-109.48 -276.38,-169.93 C 2357.6,3073 2251.72,2989.6 2146.92,2904.86 2028.63,2809.2 1911.7,2711.85 1797.15,2611.73 Z"
         style="fill:none;stroke:#919191;stroke-width:10;stroke-linecap:round;stroke-linejoin:miter;stroke-miterlimit:10;stroke-dasharray:none;stroke-opacity:0.05576631"
         transform="matrix(0.13333333,0,0,-0.13333333,0,667.66667)"
         clip-path="url(#clipPath48)" /><path
         id="path49"
         d="m 1880.09,5167.63 c 37.4,-165.96 -14.87,-349.37 -134.14,-470.69 -90.13,-91.67 -211.09,-145.92 -331.76,-190.25 -88,-32.33 -178.62,-61.05 -257.16,-112.24 -52.17,-34.01 -97.83,-77.25 -138.97,-124 C 783.016,4003.33 694.188,3625.57 436.457,3380.28 369.156,3316.23 292.27,3263.29 219.113,3206.02 117.875,3126.78 13.9219,3034.79 -114.199,3024.2"
         style="fill:none;stroke:#919191;stroke-width:10;stroke-linecap:round;stroke-linejoin:miter;stroke-miterlimit:10;stroke-dasharray:none;stroke-opacity:0.05576631"
         transform="matrix(0.13333333,0,0,-0.13333333,0,667.66667)"
         clip-path="url(#clipPath50)" /><path
         id="path51"
         d="m 1631.49,5089 c 4.47,-98.12 -40.15,-193.84 -105.04,-267.57 C 1461.56,4747.7 1377.64,4693.39 1291.9,4645.47 1133.13,4556.75 961.297,4484.57 829.336,4359.4 770.242,4303.35 720.75,4238.05 673.543,4171.67 616.004,4090.76 561.32,4007.6 514.938,3919.81 473.102,3840.62 437.969,3757.58 388.563,3682.87 334.219,3600.68 263.777,3530.41 190.324,3464.74 76.4375,3362.92 -51.2617,3268.13 -200.484,3235.43"
         style="fill:none;stroke:#919191;stroke-width:10;stroke-linecap:round;stroke-linejoin:miter;stroke-miterlimit:10;stroke-dasharray:none;stroke-opacity:0.05576631"
         transform="matrix(0.13333333,0,0,-0.13333333,0,667.66667)"
         clip-path="url(#clipPath52)" /><path
         id="path53"
         d="m 1251.82,5088.43 c -27.02,-64.55 -20.49,-141.68 -58.43,-200.48 -18.44,-28.58 -45.84,-50.1 -73.7,-69.61 C 975.363,4717.3 805.113,4655.07 669.953,4542.07 567.398,4456.33 489.734,4345.24 413.344,4235.55 339.324,4129.26 265.301,4022.98 191.281,3916.69 140.801,3844.2 89.5547,3770.86 22.4336,3713.44 -44.6797,3656.01 -130.563,3615.31 -218.758,3620.28"
         style="fill:none;stroke:#919191;stroke-width:10;stroke-linecap:round;stroke-linejoin:miter;stroke-miterlimit:10;stroke-dasharray:none;stroke-opacity:0.05576631"
         transform="matrix(0.13333333,0,0,-0.13333333,0,667.66667)"
         clip-path="url(#clipPath54)" /><path
         id="path55"
         d="M 843.465,5084.36 C 804.961,4977.74 728.406,4885.31 630.828,4827.62 571.34,4792.45 504.234,4769.63 450.254,4726.48 412.305,4696.14 382.496,4657.04 353.098,4618.36 262.074,4498.59 171.055,4378.82 80.0273,4259.05 12.8633,4170.68 -74.3008,4072.9 -184.852,4082.88"
         style="fill:none;stroke:#919191;stroke-width:10;stroke-linecap:round;stroke-linejoin:miter;stroke-miterlimit:10;stroke-dasharray:none;stroke-opacity:0.05576631"
         transform="matrix(0.13333333,0,0,-0.13333333,0,667.66667)"
         clip-path="url(#clipPath56)" /><path
         id="path57"
         d="m 453,5104.63 c -52.953,-50.72 -125.215,-78.57 -175.148,-132.26 -39.922,-42.92 -62.274,-98.74 -90.77,-149.95 -74.059,-133.14 -195.00778,-239.57 -336.484,-296.1"
         style="fill:none;stroke:#919191;stroke-width:10;stroke-linecap:round;stroke-linejoin:miter;stroke-miterlimit:10;stroke-dasharray:none;stroke-opacity:0.05576631"
         transform="matrix(0.13333333,0,0,-0.13333333,0,667.66667)"
         clip-path="url(#clipPath58)" /><path
         id="path59"
         d="m -113.879,1747.18 c 240.676,70.18 481.352,140.38 722.027,210.57 47.782,13.94 96.258,27.99 146.024,28.89 92.996,1.69 185.445,-46.24 237.672,-123.19 33.956,-50.05 50.886,-109.58 79.786,-162.71 50.23,-92.31 136.04,-164.39 171.32,-263.4 30.3,-85.05 18.86,-180.57 -13.53,-264.86 -32.38,-84.29 -84.32,-159.42 -136.43,-233.171 C 1052.27,881.672 1011.02,824.148 963.379,772.09 907.254,710.762 842.758,657.559 786.285,596.539 636.875,435.109 547.328,198.59 620.398,-8.89063 637.668,-57.918 671.648,-109.641 723.438,-114.211"
         style="fill:none;stroke:#919191;stroke-width:10;stroke-linecap:round;stroke-linejoin:miter;stroke-miterlimit:10;stroke-dasharray:none;stroke-opacity:0.05576631"
         transform="matrix(0.13333333,0,0,-0.13333333,0,667.66667)"
         clip-path="url(#clipPath60)" /><path
         id="path61"
         d="m 334.465,1373.31 c 3.078,-29.95 19.57,-56.59 35.418,-82.18 33.187,-53.61 66.211,-110.29 71.574,-173.11 3.219,-37.66 -3.758,-75.74 0.734,-113.27 4.489,-37.531 24.942,-77.352 61.375,-87.418 41.579,-11.48 83.278,20.789 105.782,57.59 50.98,83.368 22.027,146.978 4.894,232.428 -15.445,77.05 37.949,145.21 7.801,224.56 -54.684,143.94 -303.535,96.73 -287.578,-58.6 z"
         style="fill:none;stroke:#919191;stroke-width:10;stroke-linecap:round;stroke-linejoin:miter;stroke-miterlimit:10;stroke-dasharray:none;stroke-opacity:0.05576631"
         transform="matrix(0.13333333,0,0,-0.13333333,0,667.66667)"
         clip-path="url(#clipPath62)" /><path
         id="path63"
         d="m -85.0508,1568.99 c 182.4492,39.97 362.1018,92.7 537.1878,157.72 45.445,16.87 92.566,34.88 140.859,30.62 59.555,-5.24 110.613,-43.32 156.106,-82.12 114.625,-97.76 223.668,-225.44 223.621,-376.1 -0.032,-92.63 -42.153,-180.37 -94.336,-256.9 C 755.645,862.219 572.016,721.82 489.359,520.238 457.328,442.121 442.145,358.289 427.746,275.102 396.438,94.2305 368.395,-95.5703 426.48,-269.699"
         style="fill:none;stroke:#919191;stroke-width:10;stroke-linecap:round;stroke-linejoin:miter;stroke-miterlimit:10;stroke-dasharray:none;stroke-opacity:0.05576631"
         transform="matrix(0.13333333,0,0,-0.13333333,0,667.66667)"
         clip-path="url(#clipPath64)" /><path
         id="path65"
         d="m -106.941,1350.58 c 52.3941,12.8 104.78084,25.6 157.1676,38.4 14.7773,3.62 30.0351,7.25 45.0429,4.79 55.1685,-9.01 64.7615,-82.08 73.8395,-137.24 C 196.879,1087.84 340.246,951.281 350.895,780.641 357.191,679.84 315.801,583.172 284.52,487.141 213.43,268.871 192.375,34.4609 223.441,-192.988"
         style="fill:none;stroke:#919191;stroke-width:10;stroke-linecap:round;stroke-linejoin:miter;stroke-miterlimit:10;stroke-dasharray:none;stroke-opacity:0.05576631"
         transform="matrix(0.13333333,0,0,-0.13333333,0,667.66667)"
         clip-path="url(#clipPath66)" /><path
         id="path67"
         d="M -54.5391,1059.33 C 63.875,975.68 112.691,820.691 112.211,675.711 111.727,530.73 70.3008,389.5 44.2695,246.871 26.1094,147.379 15.3867,46.5391 12.2109,-54.5391 11.0117,-92.7188 11.1406,-132.27 26.4102,-167.289"
         style="fill:none;stroke:#919191;stroke-width:10;stroke-linecap:round;stroke-linejoin:miter;stroke-miterlimit:10;stroke-dasharray:none;stroke-opacity:0.05576631"
         transform="matrix(0.13333333,0,0,-0.13333333,0,667.66667)"
         clip-path="url(#clipPath68)" /><path
         id="path69"
         d="m 1512.71,1478.83 c -60.82,-89.35 -8.15,-214.56 -42.81,-316.94 -18.03,-53.24 -59.45,-109.84 -32.76,-159.31 15.7,-29.1 49.72,-42.221 80.95,-53.06 139.1,-48.282 278.2,-96.559 417.29,-144.84 72.99,-25.34 146.56,-50.821 223.09,-61.399 118.4,-16.359 240.71,4.11 350.24,51.93 31.72,13.84 64.17,31.539 81.2,61.66 23.6,41.719 10.8,94.32 -8.01,138.41 -46.38,108.729 -123.79,199.219 -189.64,296.129 -34.82,51.24 -60.9,104.32 -89.24,158.97 -31.09,59.96 -66.4,75.14 -120.87,110.58 -63.52,41.33 -109.37,137.54 -178.21,165.05 -82.47,32.96 -139.73,-86.38 -206.55,-118.75 -91.51,-44.34 -221.87,-36.16 -284.68,-128.43 z"
         style="fill:none;stroke:#919191;stroke-width:10;stroke-linecap:round;stroke-linejoin:miter;stroke-miterlimit:10;stroke-dasharray:none;stroke-opacity:0.05576631"
         transform="matrix(0.13333333,0,0,-0.13333333,0,667.66667)"
         clip-path="url(#clipPath70)" /><path
         id="path71"
         d="m 2145.52,1372.57 c 29.68,-32.82 57.12,-67.96 84.99,-100.04 40.73,-46.91 77.09,-97.65 108.4,-151.3 20.44,-35.02 39.3,-74.11 34.42,-114.36 -8,-66.011 -78.83,-109.05 -145.28,-111.53 -66.43,-2.469 -129.85,24.59 -192.43,47.012 -115.62,41.429 -236.35,68.478 -349.33,116.628 -21.05,8.97 -43.88,20.92 -50.91,42.69 -4.47,13.89 -1.44,28.94 1.63,43.19 10.35,48.08 20.7,96.16 31.04,144.24 6.09,28.27 12.76,57.77 31.34,79.91 31.19,37.19 85.13,42.63 130.21,60.64 29.89,11.93 56.91,30.14 86.58,42.61 29.68,12.45 64.17,18.78 93.74,6.03 53.2,-22.96 96.36,-62.32 135.6,-105.72 z"
         style="fill:none;stroke:#919191;stroke-width:10;stroke-linecap:round;stroke-linejoin:miter;stroke-miterlimit:10;stroke-dasharray:none;stroke-opacity:0.05576631"
         transform="matrix(0.13333333,0,0,-0.13333333,0,667.66667)"
         clip-path="url(#clipPath72)" /><path
         id="path73"
         d="m 1993.25,1256.6 c -14.88,1.65 -30.38,1.95 -44.29,-3.54 -13.92,-5.5 -25.93,-17.96 -27.01,-32.88 -1.17,-16.09 10.43,-30.77 24.37,-38.86 13.94,-8.09 30.12,-11.17 45.62,-15.59 26.78,-7.61 52.33,-19.58 75.34,-35.26 11.05,-7.54 21.74,-16.04 34.36,-20.49 12.62,-4.45 28.01,-4.02 37.84,5.06 11.2,10.34 11.57,28.02 7.9,42.82 -17.05,68.68 -92.03,91.87 -154.13,98.74 z"
         style="fill:none;stroke:#919191;stroke-width:10;stroke-linecap:round;stroke-linejoin:miter;stroke-miterlimit:10;stroke-dasharray:none;stroke-opacity:0.05576631"
         transform="matrix(0.13333333,0,0,-0.13333333,0,667.66667)"
         clip-path="url(#clipPath74)" /><path
         id="path75"
         d="m 1384.81,-37.4102 c -96.35,39.15239 -190.94,91.3321 -255.57,172.8082 -64.63,81.493 -93.72,197.403 -50.95,292.211 55.21,122.332 209.58,170.911 342.74,154.032 133.16,-16.86 254.06,-83.02 379.13,-131.731 224.11,-87.289 469.4,-119.601 708.47,-93.328 107.94,11.867 214.8,35.457 323.36,38.078 237.8,5.719 465.51,-88.898 681.76,-187.969 32.73,-15 66.75,-31.199 88.43,-59.941 30.61,-40.602 29.58,-96.1602 25.16,-146.8085938 C 3623.5,-44.0781 3614.55,-93.9492 3577.1,-117.398"
         style="fill:none;stroke:#919191;stroke-width:10;stroke-linecap:round;stroke-linejoin:miter;stroke-miterlimit:10;stroke-dasharray:none;stroke-opacity:0.05576631"
         transform="matrix(0.13333333,0,0,-0.13333333,0,667.66667)"
         clip-path="url(#clipPath76)" /><path
         id="path77"
         d="m 1648.55,-18.5117 c -97.21,34.6719 -183.36,99.7031 -243.33,183.7107 -24.14,33.789 -44.74,76.699 -30.25,115.633 10.79,28.957 39.44,48.449 69.47,55.738 30.04,7.301 61.56,4.18 92.14,-0.351 220.54,-32.719 425.65,-136.231 645.93,-170.66 226.87,-35.45 458.38,3.91 687.88,-3.36 92.25,-2.918 186.7,-14.129 268.6,-56.679 81.9,-42.5512 149.59,-121.8208 156.65,-213.84"
         style="fill:none;stroke:#919191;stroke-width:10;stroke-linecap:round;stroke-linejoin:miter;stroke-miterlimit:10;stroke-dasharray:none;stroke-opacity:0.05576631"
         transform="matrix(0.13333333,0,0,-0.13333333,0,667.66667)"
         clip-path="url(#clipPath78)" /><path
         id="path79"
         d="m 2009.51,-30.0391 c -18.07,10.1797 -36.13,20.34769 -54.19,30.5391 -5.98,3.37109 -12.28,7.07031 -15.37,13.1914 -9.2,18.3008 16.03,34.4492 36.11,38.5391 156.21,31.7383 316.61,-21.2696 476.02,-20.4883 73.22,0.3476 147.41,12.0273 219.05,-3.082 71.64,-15.1016 142.91,-66.8204 150.38,-139.6602"
         style="fill:none;stroke:#919191;stroke-width:10;stroke-linecap:round;stroke-linejoin:miter;stroke-miterlimit:10;stroke-dasharray:none;stroke-opacity:0.05576631"
         transform="matrix(0.13333333,0,0,-0.13333333,0,667.66667)"
         clip-path="url(#clipPath80)" /><path
         id="path81"
         d="m 3479.87,730.172 c -23.47,-2.231 -49.62,-7.313 -62.88,-26.801 -10.98,-16.141 -9.64,-37.812 -3.77,-56.441 18.02,-57.258 72.23,-96.328 128.71,-116.7 56.48,-20.359 117.07,-26.019 175.27,-40.738 73.77,-18.66 142.97,-51.66 214.36,-78.012 67.31,-24.839 136.7,-43.789 206.72,-59.511 45.9,-10.289 93.09,-19.25 139.75,-13.309 99.84,12.692 184.83,100.949 193.74,201.192 11.55,130.027 -163.89,193.867 -273.29,193.296 -63.25,-0.328 -126.24,-17.089 -189.24,-21.878 -83.74,-6.379 -167.3,0.851 -250.66,8.902 -92.54,8.918 -185.75,18.84 -278.71,10 z"
         style="fill:none;stroke:#919191;stroke-width:10;stroke-linecap:round;stroke-linejoin:miter;stroke-miterlimit:10;stroke-dasharray:none;stroke-opacity:0.05576631"
         transform="matrix(0.13333333,0,0,-0.13333333,0,667.66667)"
         clip-path="url(#clipPath82)" /><path
         id="path83"
         d="m 4079.07,594.621 c -25.13,-0.09 -52.14,-0.769 -72.39,-15.652 -8.47,-6.219 -15.59,-15.637 -15.33,-26.149 0.45,-19.09 22.87,-29.031 41.71,-32.109 37.15,-6.07 75.36,-3.582 112.37,-10.402 22.4,-4.118 44.06,-11.59 66.45,-15.758 35.41,-6.59 81.01,-2.77 98.81,33.969 11.88,24.492 6.93,52.589 -17.17,65.429 -22.49,11.981 -58.29,4.121 -82.29,2.77 -44.03,-2.477 -88.08,-1.949 -132.16,-2.098 z"
         style="fill:none;stroke:#919191;stroke-width:10;stroke-linecap:round;stroke-linejoin:miter;stroke-miterlimit:10;stroke-dasharray:none;stroke-opacity:0.05576631"
         transform="matrix(0.13333333,0,0,-0.13333333,0,667.66667)"
         clip-path="url(#clipPath84)" /><path
         id="path85"
         d="m 4583.12,2197.56 c -38.27,-54.73 -71.15,-119.36 -61.9,-185.49 7.74,-55.32 44.08,-102.71 85.73,-139.94 41.65,-37.24 89.54,-67 130.99,-104.45 95.32,-86.16 155.11,-211.45 265.84,-276.63 32.56,-19.17 68.26,-32.25 103.74,-45.23 97.7,-35.76 197.86,-71.98 301.9,-72.43 130.86,-0.57 255.45,55.66 367.33,123.53 28.84,17.5 57.39,36.02 81.66,59.48 72.8,70.37 98.72,177.51 97.58,278.76 -0.81,72.41 -14.28,146.14 -50.56,208.81 -25.88,44.74 -62.34,82.25 -98.41,119.26 -88.5,90.82 -176.89,181.75 -265.51,272.45 -50,51.18 -96.05,104.53 -169.02,119 -183.01,36.28 -401.11,-36.07 -553.88,-133.41 -91.95,-58.59 -172.81,-134.38 -235.49,-223.71 z"
         style="fill:none;stroke:#919191;stroke-width:10;stroke-linecap:round;stroke-linejoin:miter;stroke-miterlimit:10;stroke-dasharray:none;stroke-opacity:0.05576631"
         transform="matrix(0.13333333,0,0,-0.13333333,0,667.66667)"
         clip-path="url(#clipPath86)" /><path
         id="path87"
         d="m 4851.34,2182.29 c -14.2,-14.2 -28.03,-29.49 -35.68,-48.07 -16.5,-40.12 -0.62,-86.67 23.75,-122.56 24.38,-35.89 56.95,-65.88 79.31,-103.05 23.27,-38.67 34.57,-83.56 57.59,-122.37 41.46,-69.92 115.76,-112.53 186.79,-152.05 31.54,-17.54 63.46,-35.23 98.27,-44.75 43.69,-11.94 89.89,-10.4 135,-6.29 60.45,5.53 121.4,15.81 176.35,41.62 54.95,25.81 103.82,68.75 126.56,125.04 29.93,74.13 10.39,160.86 -31.54,228.93 -41.91,68.06 -103.72,121.14 -164.51,173.05 -78.95,67.43 -189,207.95 -302.65,209.59 -124.55,1.78 -265.4,-95.24 -349.24,-179.09 z"
         style="fill:none;stroke:#919191;stroke-width:10;stroke-linecap:round;stroke-linejoin:miter;stroke-miterlimit:10;stroke-dasharray:none;stroke-opacity:0.05576631"
         transform="matrix(0.13333333,0,0,-0.13333333,0,667.66667)"
         clip-path="url(#clipPath88)" /><path
         id="path89"
         d="m 5184.16,2051.71 c -1.92,-1.67 -3.8,-3.52 -4.71,-5.88 -2.72,-7.12 4.23,-13.91 10.12,-18.73 17.41,-14.26 32.12,-31.8 43.11,-51.43 21.61,-38.57 31.13,-87.52 68.18,-111.64 22.77,-14.81 51.67,-16.74 78.69,-13.91 4.74,0.5 9.58,1.16 13.82,3.34 5.17,2.66 9,7.37 12.14,12.27 32.66,51.24 0.77,107.31 -34.11,146.7 -26.91,30.41 -57.06,44.45 -96.22,54.76 -30.82,8.1 -65.92,6.35 -91.02,-15.48 z"
         style="fill:none;stroke:#919191;stroke-width:10;stroke-linecap:round;stroke-linejoin:miter;stroke-miterlimit:10;stroke-dasharray:none;stroke-opacity:0.05576631"
         transform="matrix(0.13333333,0,0,-0.13333333,0,667.66667)"
         clip-path="url(#clipPath90)" /><path
         id="path91"
         d="m 7583.12,2709.41 c -70.81,34.18 -157.47,33.5 -227.73,-1.8 -82.77,-41.57 -141.53,-126.63 -230.58,-152.16 -103.02,-29.55 -214.79,29.9 -319.11,5.25 -133.01,-31.43 -200.99,-182.82 -322.08,-246.2 -63.93,-33.46 -140.04,-40.72 -200.54,-80.07 -68.18,-44.34 -106.79,-124.6 -117.39,-205.24 -4.5,-34.3 -4.49,-69.57 4.25,-103.05 11.24,-43.11 36.39,-81.35 64.64,-115.8 207.62,-253.17 570.78,-319.33 815.61,-536.72 57.28,-50.85 107.21,-109.28 159.86,-164.9 129.18,-136.439 274.88,-256.009 420.14,-375.181"
         style="fill:none;stroke:#919191;stroke-width:10;stroke-linecap:round;stroke-linejoin:miter;stroke-miterlimit:10;stroke-dasharray:none;stroke-opacity:0.05576631"
         transform="matrix(0.13333333,0,0,-0.13333333,0,667.66667)"
         clip-path="url(#clipPath92)" /><path
         id="path93"
         d="m 7494.44,2472.1 c -31.18,16.27 -70.14,8.3 -100.76,-9.01 -30.62,-17.31 -55.6,-42.87 -83.46,-64.34 -56.2,-43.33 -125.05,-70.05 -195.77,-75.97 -61.25,-5.11 -125.06,4.7 -182.82,-16.31 -88.24,-32.08 -141.23,-128.37 -229.83,-159.43 -49.71,-17.42 -109.02,-13.73 -148.69,-48.37 -43.35,-37.85 -43.25,-108.45 -15.52,-158.88 27.73,-50.42 76.27,-85.41 123.24,-118.66 107.14,-75.86 214.28,-151.73 321.41,-227.59 93.97,-66.53 188.43,-133.47 270.14,-214.59 102.25,-101.5 195.53,-231.43 337.04,-258.44"
         style="fill:none;stroke:#919191;stroke-width:10;stroke-linecap:round;stroke-linejoin:miter;stroke-miterlimit:10;stroke-dasharray:none;stroke-opacity:0.05576631"
         transform="matrix(0.13333333,0,0,-0.13333333,0,667.66667)"
         clip-path="url(#clipPath94)" /><path
         id="path95"
         d="m 7501.94,2244.72 c -70.46,-68.4 -159.33,-117.66 -254.69,-141.17 -101.12,-24.92 -211.87,-22.51 -301.2,-76.08 -12.82,-7.69 -25.27,-16.73 -33.62,-29.13 -13.22,-19.66 -14.37,-45.1 -11.4,-68.61 8.44,-66.77 46.15,-127.08 93.74,-174.66 47.6,-47.58 104.94,-84.03 161.77,-120.08 119.78,-75.98 239.55,-151.95 359.33,-227.92"
         style="fill:none;stroke:#919191;stroke-width:10;stroke-linecap:round;stroke-linejoin:miter;stroke-miterlimit:10;stroke-dasharray:none;stroke-opacity:0.05576631"
         transform="matrix(0.13333333,0,0,-0.13333333,0,667.66667)"
         clip-path="url(#clipPath96)" /><path
         id="path97"
         d="m 7574.57,1985.77 c -30.4,-21.22 -65.72,-35.36 -102.37,-40.98 -49.83,-7.64 -108.05,-2.49 -142.42,-39.36 -30.97,-33.24 -26.28,-88.18 -2.11,-126.64 24.18,-38.46 63.29,-64.54 100.63,-90.41 56.76,-39.34 112.02,-80.84 165.62,-124.4"
         style="fill:none;stroke:#919191;stroke-width:10;stroke-linecap:round;stroke-linejoin:miter;stroke-miterlimit:10;stroke-dasharray:none;stroke-opacity:0.05576631"
         transform="matrix(0.13333333,0,0,-0.13333333,0,667.66667)"
         clip-path="url(#clipPath98)" /><path
         id="path99"
         d="m 4177.11,-88.1016 c -14.89,53.6407 8.01,111.9727 44.67,153.8516 36.67,41.879 85.59,70.68 133.01,99.809 128.27,78.773 262.63,181.171 287.27,329.66 12.09,72.851 -4.03,150.941 24.54,219.043 14.63,34.859 39.9,64.047 65.46,91.91 54.45,59.34 112.17,115.687 172.79,168.699 46.56,40.709 95.31,79.759 150.54,107.619 56.63,28.56 118.58,44.64 179.99,60.51 103.6,26.77 207.89,53.65 314.61,61.36 57.84,4.18 117.25,2.46 171.84,-17.09 71.7,-25.68 129.06,-79.64 184.18,-132.19 118.44,-112.908 239.97,-230.201 304.25,-380.689 30.18,-70.653 46.65,-146.571 55.31,-222.911 20.37,-179.468 -2.33,-363.6792 -65.64,-532.8394"
         style="fill:none;stroke:#919191;stroke-width:10;stroke-linecap:round;stroke-linejoin:miter;stroke-miterlimit:10;stroke-dasharray:none;stroke-opacity:0.05576631"
         transform="matrix(0.13333333,0,0,-0.13333333,0,667.66667)"
         clip-path="url(#clipPath100)" /><path
         id="path101"
         d="m 4472.98,-77.7578 c 1.15,68.07811 50.05,126.4492 104.98,166.6992 54.93,40.2386 118.2,68.7496 169.96,112.9886 151.45,129.492 168.86,356.039 274.9,524.742 91.39,145.398 253.37,244.039 424.49,258.527 42.4,3.59 85.59,2.242 126.73,-8.64 66.49,-17.571 123.84,-58.731 179.51,-99.09 95.05,-68.887 192.88,-140.797 251.61,-242.43 48.71,-84.269 66.6,-182.59 77.72,-279.277 19.92,-173.231 17.94,-359.20341 -72.55,-508.25"
         style="fill:none;stroke:#919191;stroke-width:10;stroke-linecap:round;stroke-linejoin:miter;stroke-miterlimit:10;stroke-dasharray:none;stroke-opacity:0.05576631"
         transform="matrix(0.13333333,0,0,-0.13333333,0,667.66667)"
         clip-path="url(#clipPath102)" /><path
         id="path103"
         d="m 4827.89,-65.4688 c -0.7,46.8711 28.28,89.418 62.87,121.0508 34.59,31.6368 75.52,55.727 110.01,87.477 80.71,74.3 118.7,182.543 162.73,283.011 44.04,100.489 104.17,204.168 205.28,246.762 126.65,53.348 272.43,-7.582 384.68,-86.852 38.36,-27.101 75.43,-56.718 105.39,-92.91 71.03,-85.8 96.23,-203.41 84.56,-314.179 -11.67,-110.7816 -57.26,-215.5707 -114.59,-311.071"
         style="fill:none;stroke:#919191;stroke-width:10;stroke-linecap:round;stroke-linejoin:miter;stroke-miterlimit:10;stroke-dasharray:none;stroke-opacity:0.05576631"
         transform="matrix(0.13333333,0,0,-0.13333333,0,667.66667)"
         clip-path="url(#clipPath104)" /><path
         id="path105"
         d="m 5161.84,-50.2109 c 65.98,71.7812 116.63,157.5629 147.62,249.9999 8.15,24.262 15.04,49.211 27.71,71.473 15.17,26.668 38.11,48.347 63.71,65.289 76.1,50.398 178.41,58.5 261.49,20.699 14,-6.371 27.59,-14.039 38.76,-24.59 19.79,-18.699 30.57,-45.121 36.67,-71.648 17.69,-76.852 0.42,-157.481 -25,-232.1214 -25.43,-74.6406 -59.1,-146.8206 -75.62,-223.9296"
         style="fill:none;stroke:#919191;stroke-width:10;stroke-linecap:round;stroke-linejoin:miter;stroke-miterlimit:10;stroke-dasharray:none;stroke-opacity:0.05576631"
         transform="matrix(0.13333333,0,0,-0.13333333,0,667.66667)"
         clip-path="url(#clipPath106)" /><path
         id="path107"
         d="m 6387.45,-80.3594 c 66.26,79.691431 82.83,188.7114 90.19,292.0784 2.82,39.519 4.8,79.812 18.69,116.91 15.41,41.16 44.5,75.68 75.4,106.93 42.02,42.511 88.42,80.671 138.23,113.711 43.24,28.679 89.2,53.609 129.08,86.8 39.65,32.989 72.56,73.551 112.84,105.75 109.69,87.66 272.86,101.649 395.86,33.93 38.1,-20.969 72.02,-48.699 104.56,-77.539 129.82,-115.07 241.24,-250.84 328.79,-400.59"
         style="fill:none;stroke:#919191;stroke-width:10;stroke-linecap:round;stroke-linejoin:miter;stroke-miterlimit:10;stroke-dasharray:none;stroke-opacity:0.05576631"
         transform="matrix(0.13333333,0,0,-0.13333333,0,667.66667)"
         clip-path="url(#clipPath108)" /><path
         id="path109"
         d="m 6594.63,-59.6016 c 52.11,102.6719 23.41,234.1406 82.63,332.8716 24.85,41.429 62.96,72.902 100.37,103.472 62.39,50.977 124.9,101.828 188.46,151.36 31.32,24.398 63.39,48.769 100.22,63.609 99.57,40.141 214.57,3.078 304.82,-55.063 127.48,-82.117 227.12,-206.66 279.26,-349.046"
         style="fill:none;stroke:#919191;stroke-width:10;stroke-linecap:round;stroke-linejoin:miter;stroke-miterlimit:10;stroke-dasharray:none;stroke-opacity:0.05576631"
         transform="matrix(0.13333333,0,0,-0.13333333,0,667.66667)"
         clip-path="url(#clipPath110)" /><path
         id="path111"
         d="m 6795.07,-62.6602 c 14.74,118.0821 58.74,232.3902 126.95,329.8902 24.51,35.032 53.53,69.04 92.61,86.411 32.04,14.25 68.06,16.07 103.12,16.531 42.45,0.558 85.36,-0.602 126.5,-11.133 85.18,-21.797 156.23,-82.609 207.46,-154.078 51.23,-71.461 85.06,-153.6524 118.42,-235.0118"
         style="fill:none;stroke:#919191;stroke-width:10;stroke-linecap:round;stroke-linejoin:miter;stroke-miterlimit:10;stroke-dasharray:none;stroke-opacity:0.05576631"
         transform="matrix(0.13333333,0,0,-0.13333333,0,667.66667)"
         clip-path="url(#clipPath112)" /><path
         id="path113"
         d="m 7016.06,-59.5703 c -10.49,15.9492 -10.38,37.0586 -4.26,55.15233 6.13,18.06637 17.56,33.78907 28.94,49.12887 28.32,38.1875 59.21,77.4611 102.87,96.2691 10.37,4.461 21.51,7.7 32.78,7.239 9.63,-0.387 18.97,-3.449 27.87,-7.18 82.72,-34.629 128.77,-121.4999 168.29,-201.9999"
         style="fill:none;stroke:#919191;stroke-width:10;stroke-linecap:round;stroke-linejoin:miter;stroke-miterlimit:10;stroke-dasharray:none;stroke-opacity:0.05576631"
         transform="matrix(0.13333333,0,0,-0.13333333,0,667.66667)"
         clip-path="url(#clipPath114)" /><path
         id="path115"
         d="m 1075.18,5003.75 v -20"
         style="fill:none;stroke:#919191;stroke-width:7.5;stroke-linecap:round;stroke-linejoin:miter;stroke-miterlimit:10;stroke-dasharray:none;stroke-opacity:0.05576631"
         transform="matrix(0.13333333,0,0,-0.13333333,0,667.66667)" /><path
         id="path117"
         d="m 1075.18,23.75 v -20"
         style="fill:none;stroke:#919191;stroke-width:7.5;stroke-linecap:round;stroke-linejoin:miter;stroke-miterlimit:10;stroke-dasharray:none;stroke-opacity:0.05576631"
         transform="matrix(0.13333333,0,0,-0.13333333,0,667.66667)" /><path
         id="path118"
         d="m 2146.6,5003.75 v -20"
         style="fill:none;stroke:#919191;stroke-width:7.5;stroke-linecap:round;stroke-linejoin:miter;stroke-miterlimit:10;stroke-dasharray:none;stroke-opacity:0.05576631"
         transform="matrix(0.13333333,0,0,-0.13333333,0,667.66667)" /><path
         id="path120"
         d="m 2146.6,23.75 v -20"
         style="fill:none;stroke:#919191;stroke-width:7.5;stroke-linecap:round;stroke-linejoin:miter;stroke-miterlimit:10;stroke-dasharray:none;stroke-opacity:0.05576631"
         transform="matrix(0.13333333,0,0,-0.13333333,0,667.66667)" /><path
         id="path121"
         d="m 3218.03,5003.75 v -20"
         style="fill:none;stroke:#919191;stroke-width:7.5;stroke-linecap:round;stroke-linejoin:miter;stroke-miterlimit:10;stroke-dasharray:none;stroke-opacity:0.05576631"
         transform="matrix(0.13333333,0,0,-0.13333333,0,667.66667)" /><path
         id="path123"
         d="m 3218.03,23.75 v -20"
         style="fill:none;stroke:#919191;stroke-width:7.5;stroke-linecap:round;stroke-linejoin:miter;stroke-miterlimit:10;stroke-dasharray:none;stroke-opacity:0.05576631"
         transform="matrix(0.13333333,0,0,-0.13333333,0,667.66667)" /><path
         id="path124"
         d="m 4289.46,5003.75 v -20"
         style="fill:none;stroke:#919191;stroke-width:7.5;stroke-linecap:round;stroke-linejoin:miter;stroke-miterlimit:10;stroke-dasharray:none;stroke-opacity:0.05576631"
         transform="matrix(0.13333333,0,0,-0.13333333,0,667.66667)" /><path
         id="path126"
         d="m 4289.46,23.75 v -20"
         style="fill:none;stroke:#919191;stroke-width:7.5;stroke-linecap:round;stroke-linejoin:miter;stroke-miterlimit:10;stroke-dasharray:none;stroke-opacity:0.05576631"
         transform="matrix(0.13333333,0,0,-0.13333333,0,667.66667)" /><path
         id="path127"
         d="m 5360.89,5003.75 v -20"
         style="fill:none;stroke:#919191;stroke-width:7.5;stroke-linecap:round;stroke-linejoin:miter;stroke-miterlimit:10;stroke-dasharray:none;stroke-opacity:0.05576631"
         transform="matrix(0.13333333,0,0,-0.13333333,0,667.66667)" /><path
         id="path129"
         d="m 5360.89,23.75 v -20"
         style="fill:none;stroke:#919191;stroke-width:7.5;stroke-linecap:round;stroke-linejoin:miter;stroke-miterlimit:10;stroke-dasharray:none;stroke-opacity:0.05576631"
         transform="matrix(0.13333333,0,0,-0.13333333,0,667.66667)" /><path
         id="path130"
         d="m 6432.32,5003.75 v -20"
         style="fill:none;stroke:#919191;stroke-width:7.5;stroke-linecap:round;stroke-linejoin:miter;stroke-miterlimit:10;stroke-dasharray:none;stroke-opacity:0.05576631"
         transform="matrix(0.13333333,0,0,-0.13333333,0,667.66667)" /><path
         id="path132"
         d="m 6432.32,23.75 v -20"
         style="fill:none;stroke:#919191;stroke-width:7.5;stroke-linecap:round;stroke-linejoin:miter;stroke-miterlimit:10;stroke-dasharray:none;stroke-opacity:0.05576631"
         transform="matrix(0.13333333,0,0,-0.13333333,0,667.66667)" /><path
         id="path133"
         d="m 7503.75,4110.89 h -30"
         style="fill:none;stroke:#919191;stroke-width:7.5;stroke-linecap:round;stroke-linejoin:miter;stroke-miterlimit:10;stroke-dasharray:40.1619, 20.081;stroke-dashoffset:0;stroke-opacity:0.05576631"
         transform="matrix(0.13333333,0,0,-0.13333333,0,667.66667)" /><path
         id="path135"
         d="M 33.7461,4110.89 H 3.74609"
         style="fill:none;stroke:#919191;stroke-width:7.5;stroke-linecap:round;stroke-linejoin:miter;stroke-miterlimit:10;stroke-dasharray:40.1619, 20.081;stroke-dashoffset:0;stroke-opacity:0.05576631"
         transform="matrix(0.13333333,0,0,-0.13333333,0,667.66667)" /><path
         id="path136"
         d="m 7503.75,3039.46 h -30"
         style="fill:none;stroke:#919191;stroke-width:7.5;stroke-linecap:round;stroke-linejoin:miter;stroke-miterlimit:10;stroke-dasharray:40.1619, 20.081;stroke-dashoffset:0;stroke-opacity:0.05576631"
         transform="matrix(0.13333333,0,0,-0.13333333,0,667.66667)" /><path
         id="path138"
         d="M 33.7461,3039.46 H 3.74609"
         style="fill:none;stroke:#919191;stroke-width:7.5;stroke-linecap:round;stroke-linejoin:miter;stroke-miterlimit:10;stroke-dasharray:40.1619, 20.081;stroke-dashoffset:0;stroke-opacity:0.05576631"
         transform="matrix(0.13333333,0,0,-0.13333333,0,667.66667)" /><path
         id="path139"
         d="m 7503.75,1968.04 h -30"
         style="fill:none;stroke:#919191;stroke-width:7.5;stroke-linecap:round;stroke-linejoin:miter;stroke-miterlimit:10;stroke-dasharray:40.1619, 20.081;stroke-dashoffset:0;stroke-opacity:0.05576631"
         transform="matrix(0.13333333,0,0,-0.13333333,0,667.66667)" /><path
         id="path141"
         d="M 33.7461,1968.04 H 3.74609"
         style="fill:none;stroke:#919191;stroke-width:7.5;stroke-linecap:round;stroke-linejoin:miter;stroke-miterlimit:10;stroke-dasharray:40.1619, 20.081;stroke-dashoffset:0;stroke-opacity:0.05576631"
         transform="matrix(0.13333333,0,0,-0.13333333,0,667.66667)" /><path
         id="path142"
         d="m 7503.75,896.609 h -30"
         style="fill:none;stroke:#919191;stroke-width:7.5;stroke-linecap:round;stroke-linejoin:miter;stroke-miterlimit:10;stroke-dasharray:40.1619, 20.081;stroke-dashoffset:0;stroke-opacity:0.05576631"
         transform="matrix(0.13333333,0,0,-0.13333333,0,667.66667)" /><path
         id="path144"
         d="M 33.7461,896.609 H 3.74609"
         style="fill:none;stroke:#919191;stroke-width:7.5;stroke-linecap:round;stroke-linejoin:miter;stroke-miterlimit:10;stroke-dasharray:40.1619, 20.081;stroke-dashoffset:0;stroke-opacity:0.05576631"
         transform="matrix(0.13333333,0,0,-0.13333333,0,667.66667)" /></g></g></svg>
